<svg width="100" height="100" viewBox="0 0 100 100" fill="none" xmlns="http://www.w3.org/2000/svg">
<rect width="100" height="100" rx="10" fill="#4ECDC4"/>
<g opacity="0.5">
<path d="M68.1817 20.8635H24.5453C23.3404 20.8635 22.3635 21.8404 22.3635 23.0453V66.6817C22.3635 67.8867 23.3404 68.8635 24.5453 68.8635H68.1817C69.3867 68.8635 70.3635 67.8867 70.3635 66.6817V23.0453C70.3635 21.8404 69.3867 20.8635 68.1817 20.8635Z" fill="black" stroke="black" stroke-width="2.90909"/>
<path d="M75.4547 28.1365H31.8183C30.6133 28.1365 29.6365 29.1133 29.6365 30.3183V73.9547C29.6365 75.1596 30.6133 76.1365 31.8183 76.1365H75.4547C76.6596 76.1365 77.6365 75.1596 77.6365 73.9547V30.3183C77.6365 29.1133 76.6596 28.1365 75.4547 28.1365Z" stroke="#ABFFAB" stroke-width="2.90909"/>
</g>
</svg>
