<svg width="100" height="101" viewBox="0 0 100 101" fill="none" xmlns="http://www.w3.org/2000/svg">
<rect y="0.189941" width="100" height="100" rx="10" fill="#4ECDC4"/>
<g opacity="0.5">
<path d="M41.8855 24H63.064C64.6302 24 65.6862 25.6016 65.0691 27.0413L46.368 70.6778C46.0242 71.48 45.2354 72 44.3626 72H23.1842C21.6178 72 20.5617 70.3985 21.1788 68.9585L39.8801 25.3224C40.2239 24.5201 41.0127 24 41.8855 24Z" fill="black" stroke="black" stroke-width="2.90909"/>
<path d="M46.8855 30H68.064C69.6302 30 70.6862 31.6016 70.0691 33.0413C62.7659 50.0824 58.6713 59.6367 51.368 76.6778C51.024 77.48 50.2353 78 49.3626 78H28.1842C26.6178 78 25.5617 76.3985 26.1788 74.9585L44.88 31.3224C45.224 30.5201 46.0128 30 46.8855 30Z" stroke="#ABFFAB" stroke-width="2.90909"/>
</g>
</svg>
