<svg width="20" height="14" viewBox="0 0 20 14" fill="none" xmlns="http://www.w3.org/2000/svg">
<path d="M17.2219 1.9414C15.9008 0.917387 14.3155 0.405408 12.6421 0.320068L12.3779 0.576087C13.8751 0.917387 15.1963 1.60005 16.4293 2.53872C14.932 1.77072 13.2586 1.25875 11.4971 1.08807C10.9687 1.00273 10.5283 1.00273 9.9999 1.00273C9.47148 1.00273 9.03108 1.00273 8.50266 1.08807C6.74118 1.25875 5.06778 1.77072 3.57054 2.53872C4.80354 1.60005 6.12468 0.917387 7.62192 0.576087L7.35768 0.320068C5.68428 0.405408 4.09896 0.917387 2.77788 1.9414C1.28064 4.67209 0.487976 7.74408 0.399902 10.9014C1.72098 12.2667 3.57054 13.1201 5.50818 13.1201C5.50818 13.1201 6.12468 12.4374 6.56502 11.84C5.4201 11.5841 4.3632 10.9867 3.65862 10.0481C4.27512 10.3894 4.89162 10.7307 5.50818 10.9867C6.30084 11.3281 7.0935 11.4987 7.88616 11.6694C8.59074 11.7547 9.29532 11.84 9.9999 11.84C10.7045 11.84 11.4091 11.7547 12.1136 11.6694C12.9063 11.4987 13.699 11.3281 14.4916 10.9867C15.1082 10.7307 15.7247 10.3894 16.3412 10.0481C15.6366 10.9867 14.5797 11.5841 13.4348 11.84C13.8751 12.4374 14.4916 13.1201 14.4916 13.1201C16.4293 13.1201 18.2788 12.2667 19.5999 10.9014C19.5118 7.74408 18.7192 4.67209 17.2219 1.9414ZM7.0935 9.36536C6.21276 9.36536 5.4201 8.59736 5.4201 7.65874C5.4201 6.72007 6.21276 5.95207 7.0935 5.95207C7.97424 5.95207 8.7669 6.72007 8.7669 7.65874C8.7669 8.59736 7.97424 9.36536 7.0935 9.36536ZM12.9063 9.36536C12.0256 9.36536 11.2329 8.59736 11.2329 7.65874C11.2329 6.72007 12.0256 5.95207 12.9063 5.95207C13.787 5.95207 14.5797 6.72007 14.5797 7.65874C14.5797 8.59736 13.787 9.36536 12.9063 9.36536Z" fill="white"/>
</svg>
