<svg width="340" height="68" viewBox="0 0 340 68" fill="none" xmlns="http://www.w3.org/2000/svg">
<path fill-rule="evenodd" clip-rule="evenodd" d="M46.3635 51.5909C47.8698 51.5909 49.0908 50.3699 49.0908 48.8637V16.1364C49.0908 14.6302 47.8657 13.399 46.3633 13.505C27.4499 14.84 12.3399 29.95 11.0049 48.8634C10.8989 50.3658 12.13 51.5909 13.6363 51.5909H46.3635Z" fill="#1A535C"/>
<path fill-rule="evenodd" clip-rule="evenodd" d="M101.091 13.4091C90.5473 13.4091 82 21.9564 82 32.5C82 43.0437 90.5473 51.5909 101.091 51.5909C111.635 51.5909 120.182 43.0437 120.182 32.5C120.182 21.9564 111.635 13.4091 101.091 13.4091ZM101.091 40.6818C96.5722 40.6818 92.9091 37.0188 92.9091 32.5C92.9091 27.9813 96.5722 24.3182 101.091 24.3182C105.61 24.3182 109.273 27.9813 109.273 32.5C109.273 37.0188 105.61 40.6818 101.091 40.6818Z" fill="#FF6B6B"/>
<path fill-rule="evenodd" clip-rule="evenodd" d="M166.342 48.8686C166.165 50.3642 164.961 51.5909 163.454 51.5909H153.636C152.13 51.5909 150.899 50.3658 151.005 48.8634C152.34 29.95 167.45 14.84 186.363 13.505C187.866 13.399 189.091 14.6302 189.091 16.1364V25.9546C189.091 27.4608 187.864 28.6648 186.368 28.8419C175.892 30.0823 167.582 38.3923 166.342 48.8686Z" fill="#1A535C"/>
<path d="M256.364 13.4091H223.636C222.13 13.4091 220.909 14.6302 220.909 16.1364V48.8637C220.909 50.3699 222.13 51.5909 223.636 51.5909H256.364C257.87 51.5909 259.091 50.3699 259.091 48.8637V16.1364C259.091 14.6302 257.87 13.4091 256.364 13.4091Z" fill="#FF6B6B"/>
<path fill-rule="evenodd" clip-rule="evenodd" d="M303.174 13.6013C301.683 13.3886 300.455 14.6301 300.455 16.1364V21.5909C300.455 23.0971 301.709 24.2737 303.132 24.7665C306.336 25.8756 308.636 28.9191 308.636 32.5C308.636 36.0809 306.336 39.1243 303.132 40.2335C301.709 40.7263 300.455 41.9028 300.455 43.4091V48.8636C300.455 50.3699 301.683 51.6114 303.174 51.3986C312.429 50.0789 319.545 42.1205 319.545 32.5C319.545 22.8795 312.429 14.9211 303.174 13.6013Z" fill="#1A535C"/>
</svg>
