<svg width="16" height="12" viewBox="0 0 16 12" fill="none" xmlns="http://www.w3.org/2000/svg">
<path d="M8.71456 11.72C3.24797 11.72 0.129919 7.59084 0 0.719971H2.73829C2.82823 5.76301 4.84697 7.89915 6.44597 8.33959V0.719971H9.02436V5.06932C10.6034 4.88213 12.2623 2.90015 12.822 0.719971H15.4004C15.1895 1.85067 14.7691 2.92127 14.1655 3.86479C13.562 4.80832 12.7882 5.60447 11.8926 6.20345C12.8923 6.75076 13.7753 7.52543 14.4833 8.47634C15.1913 9.42725 15.7082 10.5328 16 11.72H13.1618C12.8999 10.6888 12.3676 9.76575 11.6316 9.06648C10.8956 8.36721 9.9886 7.92283 9.02436 7.78904V11.72H8.71456Z" fill="white"/>
</svg>
