<svg width="31" height="20" viewBox="0 0 31 20" fill="none" xmlns="http://www.w3.org/2000/svg">
<path d="M27.1606 2.53334C25.0276 0.933311 22.4679 0.133343 19.7661 0L19.3394 0.400029C21.7569 0.93331 23.89 1.99996 25.8807 3.46665C23.4633 2.26665 20.7615 1.46668 17.9174 1.2C17.0642 1.06665 16.3532 1.06665 15.5 1.06665C14.6468 1.06665 13.9358 1.06665 13.0826 1.2C10.2385 1.46668 7.53668 2.26665 5.11926 3.46665C7.11004 1.99996 9.24313 0.93331 11.6606 0.400029L11.2339 0C8.53207 0.133343 5.97244 0.933311 3.83945 2.53334C1.42202 6.80004 0.142203 11.6 0 16.5333C2.13299 18.6667 5.11926 20 8.24774 20C8.24774 20 9.24313 18.9333 9.9541 17.9999C8.10553 17.6 6.39908 16.6666 5.26148 15.2C6.25687 15.7333 7.25226 16.2667 8.24774 16.6666C9.52756 17.2 10.8074 17.4667 12.0872 17.7334C13.2248 17.8666 14.3624 17.9999 15.5 17.9999C16.6376 17.9999 17.7752 17.8666 18.9128 17.7334C20.1926 17.4667 21.4724 17.2 22.7523 16.6666C23.7477 16.2667 24.7431 15.7333 25.7385 15.2C24.6009 16.6666 22.8945 17.6 21.0459 17.9999C21.7569 18.9333 22.7523 20 22.7523 20C25.8807 20 28.867 18.6667 31 16.5333C30.8578 11.6 29.578 6.80004 27.1606 2.53334ZM10.8074 14.1333C9.38535 14.1333 8.10553 12.9333 8.10553 11.4667C8.10553 10 9.38535 8.8 10.8074 8.8C12.2294 8.8 13.5092 10 13.5092 11.4667C13.5092 12.9333 12.2294 14.1333 10.8074 14.1333ZM20.1926 14.1333C18.7706 14.1333 17.4908 12.9333 17.4908 11.4667C17.4908 10 18.7706 8.8 20.1926 8.8C21.6147 8.8 22.8945 10 22.8945 11.4667C22.8945 12.9333 21.6147 14.1333 20.1926 14.1333Z" fill="white"/>
</svg>
