<svg width="209" height="546" viewBox="0 0 209 546" fill="none" xmlns="http://www.w3.org/2000/svg">
<path fill-rule="evenodd" clip-rule="evenodd" d="M45 0H0V161C0 188.614 22.3857 211 50 211H95V50C95 22.3857 72.6143 0 45 0ZM164 0C136.386 0 114 22.3857 114 50V211H159C186.614 211 209 188.614 209 161V0H164ZM0 347C0 373.522 11.0098 398.957 30.6073 417.711C47.7285 434.095 70.179 444.206 94.0598 446.5C70.1791 448.794 47.7286 458.905 30.6074 475.289C11.0099 494.043 0.00012207 519.478 0.00012207 546H104.5H209C209 519.478 197.99 494.043 178.393 475.289C161.272 458.905 138.821 448.794 114.94 446.5C138.821 444.206 161.271 434.095 178.393 417.711C197.99 398.957 209 373.522 209 347H104.5H0Z" fill="url(#paint0_linear_429_88)"/>
<defs>
<linearGradient id="paint0_linear_429_88" x1="-7.49228e-07" y1="-7.5" x2="209" y2="546" gradientUnits="userSpaceOnUse">
<stop stop-color="#2A1301"/>
<stop offset="0.520833" stop-color="#A24603"/>
<stop offset="1" stop-color="#241001"/>
</linearGradient>
</defs>
</svg>
