<svg width="234" height="552" viewBox="0 0 234 552" fill="none" xmlns="http://www.w3.org/2000/svg">
<g filter="url(#filter0_d_442_67)">
<path fill-rule="evenodd" clip-rule="evenodd" d="M53 1H4V150C4 177.614 26.3857 200 54 200H103V51C103 23.3857 80.6143 1 53 1ZM173 1C145.386 1 123 23.3857 123 51V200H172C199.614 200 222 177.614 222 150V1H173ZM220 537C220 510.478 209.464 485.043 190.711 466.289C174.327 449.905 152.843 439.794 129.991 437.5C152.843 435.206 174.327 425.095 190.711 408.711C209.464 389.957 220 364.522 220 338H120H20C20 364.522 30.5356 389.957 49.2893 408.711C65.6732 425.095 87.157 435.206 110.009 437.5C87.157 439.794 65.6732 449.905 49.2893 466.289C30.5356 485.043 20 510.478 20 537H120H220Z" fill="url(#paint0_linear_442_67)"/>
</g>
<defs>
<filter id="filter0_d_442_67" x="0" y="0" width="234" height="552" filterUnits="userSpaceOnUse" color-interpolation-filters="sRGB">
<feFlood flood-opacity="0" result="BackgroundImageFix"/>
<feColorMatrix in="SourceAlpha" type="matrix" values="0 0 0 0 0 0 0 0 0 0 0 0 0 0 0 0 0 0 127 0" result="hardAlpha"/>
<feOffset dx="4" dy="7"/>
<feGaussianBlur stdDeviation="4"/>
<feComposite in2="hardAlpha" operator="out"/>
<feColorMatrix type="matrix" values="0 0 0 0 0 0 0 0 0 0 0 0 0 0 0 0 0 0 0.25 0"/>
<feBlend mode="normal" in2="BackgroundImageFix" result="effect1_dropShadow_442_67"/>
<feBlend mode="normal" in="SourceGraphic" in2="effect1_dropShadow_442_67" result="shape"/>
</filter>
<linearGradient id="paint0_linear_442_67" x1="222" y1="537" x2="-5.00001" y2="0.999999" gradientUnits="userSpaceOnUse">
<stop stop-color="#2A1301"/>
<stop offset="0.505208" stop-color="#9E4403"/>
<stop offset="1" stop-color="#230F01"/>
</linearGradient>
</defs>
</svg>
