<svg width="185" height="184" viewBox="0 0 185 184" fill="none" xmlns="http://www.w3.org/2000/svg">
<path fill-rule="evenodd" clip-rule="evenodd" d="M123.138 16.8262C136.855 15.5538 148.854 18.7464 157.054 26.9462C165.261 35.1535 168.452 47.1678 167.17 60.9005C177.916 69.7368 184.238 80.5539 184.238 92.2376C184.238 103.907 177.931 114.712 167.21 123.542C168.383 137.09 165.173 148.935 157.054 157.054C148.854 165.254 136.855 168.446 123.138 167.174C114.339 177.773 103.596 184 92 184C80.4038 184 69.6614 177.773 60.8619 167.174C47.1454 168.446 35.146 165.253 26.9463 157.054C18.7539 148.861 15.5596 136.876 16.8229 123.175C6.37061 114.413 0.237549 103.746 0.237549 92.2376C0.237549 80.7141 6.38708 70.0337 16.865 61.2653C15.4919 47.3806 18.6664 35.2262 26.9463 26.9462C35.146 18.7466 47.1454 15.5539 60.8619 16.8263C69.6614 6.22736 80.4038 0 92 0C103.596 0 114.339 6.22733 123.138 16.8262Z" fill="#FFBC4F"/>
</svg>
