<svg width="29" height="18" viewBox="0 0 29 18" fill="none" xmlns="http://www.w3.org/2000/svg">
<path d="M15.7951 18C5.88695 18 0.235478 11.2432 0 0H4.96315C5.12617 8.25225 8.78513 11.7477 11.6833 12.4685V0H16.3567V7.11712C19.2186 6.81081 22.2255 3.56757 23.2399 0H27.9132C27.5309 1.85024 26.769 3.60212 25.675 5.14607C24.581 6.69002 23.1786 7.99282 21.5553 8.97297C23.3672 9.86857 24.9677 11.1362 26.2509 12.6922C27.5342 14.2483 28.4712 16.0573 29 18H23.8557C23.381 16.3126 22.4162 14.8022 21.0822 13.6579C19.7482 12.5137 18.1043 11.7865 16.3567 11.5676V18H15.7951Z" fill="white"/>
</svg>
