<svg width="853" height="853" viewBox="0 0 853 853" fill="none" xmlns="http://www.w3.org/2000/svg">
<path d="M462.955 651.333C155.029 1250.47 469.332 278.057 174.789 453.273C249.526 118.057 417.853 51.1253 492.675 59.5618C585.411 57.1075 709.296 172.026 462.955 651.333Z" stroke="#F83600" stroke-width="3"/>
<path d="M531.669 618.238C438.885 1272.89 417.209 269.092 200.14 525.289C161.449 189.892 296.208 74.3554 368.425 58.5116C453.767 26.8681 605.896 94.5125 531.669 618.238Z" stroke="#F83600" stroke-width="3"/>
<path d="M587.778 563.84C716.323 1199.75 366.996 277.554 249.463 584.698C103.542 286.71 190.779 136.31 252.638 98.3583C321.503 41.5493 484.942 55.113 587.778 563.84Z" stroke="#F83600" stroke-width="3"/>
<path d="M624.165 494.002C952.513 1039.1 325.004 301.705 316.734 623.535C83.2713 396.032 114.896 228.765 159.892 173.569C205.2 98.6823 361.487 57.9274 624.165 494.002Z" stroke="#F83600" stroke-width="3"/>
<path d="M636.783 417.061C1119.08 812.891 296.255 337.311 393.149 637.047C102.241 503.342 77.2797 338.63 101.162 272.988C118.937 189.069 250.947 100.397 636.783 417.061Z" stroke="#F83600" stroke-width="3"/>
<path d="M625.418 342.111C1199.68 552.293 283.502 378.549 468.938 624.571C155.98 595.012 80.37 450.66 81.6847 382.18C71.5069 298.763 166.005 173.965 625.418 342.111Z" stroke="#F83600" stroke-width="3"/>
<path d="M593.494 277.186C1192.45 290.981 286.832 419.241 535.322 589.375C235.182 660.892 120.247 550.566 100.297 486.464C65.0431 412.106 114.327 266.15 593.494 277.186Z" stroke="#F83600" stroke-width="3"/>
<path d="M547.045 227.848C1108.79 58.4857 303.933 454.069 586.045 537.623C327.956 695.867 188.03 627.626 150.329 573.725C95.319 514.887 97.6486 363.338 547.045 227.848Z" stroke="#F83600" stroke-width="3"/>
<path d="M493.236 196.513C969.365 -124.672 330.867 479.437 618.152 476.819C422.378 700.08 272.23 676.158 221.628 636.289C153.455 596.758 112.333 453.46 493.236 196.513Z" stroke="#F83600" stroke-width="3"/>
<path d="M438.88 182.57C798.737 -249.047 363.065 493.799 631.909 414.235C508.612 677.984 361.262 695.641 302.999 671.501C228.34 652.397 150.995 527.864 438.88 182.57Z" stroke="#F83600" stroke-width="3"/>
<path d="M389.342 183.123C620.301 -315.571 396.252 497.507 630.066 355.726C580.16 636.684 445.463 689.735 384.352 681.14C309.029 681.366 204.575 582.079 389.342 183.123Z" stroke="#F83600" stroke-width="3"/>
<path d="M347.998 194C452.697 -332.916 427.081 492.288 616.814 305.121C634.137 584.156 518.232 664.679 458.114 670.061C386.509 687.013 264.239 615.533 347.998 194Z" stroke="#F83600" stroke-width="3"/>
<path d="M316.232 210.746C308.146 -314.057 453.41 480.613 596.738 264.182C670.762 527.779 576.246 627.636 519.735 644.616C454.596 674.926 322.701 630.587 316.232 210.746Z" stroke="#F83600" stroke-width="3"/>
<path d="M293.829 229.357C192.564 -273.062 474.265 465.105 574.032 232.977C692.408 473.44 618.985 585.365 567.476 611.269C510.015 651.438 374.841 631.292 293.829 229.357Z" stroke="#F83600" stroke-width="3"/>
<path d="M279.527 246.694C106.818 -222.734 489.582 448.118 552.033 210.455C702.549 425.217 647.862 543.4 601.704 575.646C551.881 622.472 417.695 622.237 279.527 246.694Z" stroke="#F83600" stroke-width="3"/>
<path d="M271.597 260.59C48.5104 -173.291 499.879 431.508 533.09 195.025C704.872 385.501 665.314 505.749 624.062 542.063C580.936 592.866 450.065 607.694 271.597 260.59Z" stroke="#F83600" stroke-width="3"/>
<path d="M268.289 269.748C13.7159 -131.944 505.93 416.568 518.621 185.039C702.624 355.38 673.991 474.952 636.675 513.445C598.737 566.11 471.948 591.102 268.289 269.748Z" stroke="#F83600" stroke-width="3"/>
<path d="M268.157 273.554C-1.62314 -103.067 508.507 404.073 509.294 179.126C698.248 335.081 676.198 452.344 641.555 491.481C607.015 544.379 483.98 574.851 268.157 273.554Z" stroke="#F83600" stroke-width="3"/>
<path d="M270.228 271.864C-0.772018 -88.6364 508.228 394.364 505.228 176.364C693.228 324.364 673.561 438.364 640.228 476.864C607.228 528.697 487.028 560.264 270.228 271.864Z" stroke="#F83600" stroke-width="3"/>
</svg>
