<svg width="80" height="81" viewBox="0 0 80 81" fill="none" xmlns="http://www.w3.org/2000/svg">
<mask id="mask0_88_205" style="mask-type:alpha" maskUnits="userSpaceOnUse" x="0" y="0" width="80" height="81">
<g clip-path="url(#clip0_88_205)">
<path d="M93.6798 5.85471C97.3591 2.85393 102.641 2.85393 106.32 5.85471L114.253 12.3249C116.75 14.3607 120.074 15.0695 123.183 14.229L133.039 11.5651C137.616 10.328 142.432 12.4749 144.572 16.7057L149.229 25.9153C150.679 28.7813 153.416 30.7767 156.588 31.2792L166.717 32.8839C171.384 33.6233 174.897 37.5289 175.139 42.2482L175.672 52.6383C175.836 55.8329 177.519 58.7564 180.199 60.5032L188.865 66.1519C192.811 68.7246 194.427 73.7032 192.743 78.1034L189.015 87.8464C187.874 90.827 188.225 94.173 189.958 96.8525L195.618 105.599C198.175 109.552 197.629 114.753 194.306 118.089L186.976 125.448C184.722 127.711 183.684 130.914 184.184 134.069L185.815 144.368C186.552 149.027 183.933 153.568 179.531 155.264L169.921 158.964C166.93 160.116 164.672 162.631 163.849 165.729L161.188 175.747C159.973 180.323 155.716 183.419 150.989 183.166L140.78 182.62C137.567 182.448 134.468 183.832 132.452 186.339L126.014 194.347C123.04 198.046 117.876 199.145 113.653 196.977L104.567 192.312C101.7 190.841 98.2999 190.841 95.4332 192.312L86.3465 196.977C82.1244 199.145 76.9602 198.046 73.9863 194.347L67.548 186.339C65.5322 183.832 62.4331 182.448 59.2204 182.62L49.0112 183.166C44.2841 183.419 40.0272 180.323 38.812 175.747L36.1508 165.729C35.328 162.631 33.0703 160.116 30.0793 158.964L20.4692 155.264C16.0667 153.568 13.4478 149.027 14.1856 144.368L15.8163 134.069C16.3158 130.914 15.2782 127.711 13.0241 125.448L5.69372 118.089C2.37118 114.753 1.82515 109.552 4.38254 105.599L10.0416 96.8525C11.7753 94.173 12.1258 90.827 10.9852 87.8464L7.25666 78.1034C5.5728 73.7032 7.18861 68.7246 11.1355 66.1519L19.8015 60.5032C22.4813 58.7564 24.1637 55.8329 24.3276 52.6383L24.8608 42.2482C25.103 37.5289 28.6156 33.6233 33.2829 32.8839L43.4119 31.2792C46.5839 30.7767 49.3215 28.7813 50.7709 25.9153L55.4284 16.7057C57.568 12.4749 62.3845 10.328 66.9614 11.5651L76.817 14.229C79.9265 15.0695 83.2505 14.3607 85.7466 12.3249L93.6798 5.85471Z" fill="black"/>
</g>
</mask>
<g mask="url(#mask0_88_205)">
<rect width="80" height="80" transform="translate(0 0.699951)" fill="url(#paint0_linear_88_205)"/>
</g>
<defs>
<linearGradient id="paint0_linear_88_205" x1="80" y1="80" x2="0" y2="0" gradientUnits="userSpaceOnUse">
<stop stop-color="white"/>
<stop offset="1" stop-color="#006466"/>
</linearGradient>
<clipPath id="clip0_88_205">
<rect width="80" height="80" fill="white" transform="translate(0 0.699951)"/>
</clipPath>
</defs>
</svg>
